<svg width="4302" height="705" viewBox="0 0 4302 705" fill="none" xmlns="http://www.w3.org/2000/svg">
<path d="M1103 532C1083.71 532 1071.36 526.576 1065.94 515.728C1060.51 504.88 1057.8 491.923 1057.8 476.856V198.424H997.232V164.976C1018.93 164.976 1033.99 163.771 1042.43 161.36C1050.87 158.347 1055.99 150.211 1057.8 136.952C1059.61 123.693 1060.51 101.395 1060.51 70.056H1097.58V164.976H1183.46V198.424H1097.58V496.744H1183.46V532H1103ZM1392.03 540.136C1358.28 540.136 1330.25 531.699 1307.95 514.824C1285.66 497.949 1269.08 475.349 1258.23 447.024C1247.39 418.096 1241.96 386.155 1241.96 351.2C1241.96 315.04 1247.39 282.797 1258.23 254.472C1269.68 225.544 1286.56 202.944 1308.86 186.672C1331.16 169.797 1358.88 161.36 1392.03 161.36C1427.58 161.36 1455.91 170.099 1477 187.576C1498.1 204.451 1513.16 224.037 1522.2 246.336H1524.01V164.976H1565.59V532H1531.24L1524.01 456.064H1522.2C1512.56 478.363 1497.19 497.949 1476.1 514.824C1455 531.699 1426.98 540.136 1392.03 540.136ZM1407.39 502.168C1445.96 502.168 1474.89 488.909 1494.18 462.392C1513.46 435.875 1523.11 399.112 1523.11 352.104C1523.11 302.083 1512.86 264.416 1492.37 239.104C1472.48 213.792 1444.16 201.136 1407.39 201.136C1364.6 201.136 1333.27 215.6 1313.38 244.528C1293.49 272.853 1283.55 308.411 1283.55 351.2C1283.55 395.797 1293.79 432.259 1314.28 460.584C1334.77 488.307 1365.81 502.168 1407.39 502.168ZM1827.83 541.04C1803.72 541.04 1782.93 536.821 1765.46 528.384C1748.58 519.947 1734.72 509.701 1723.87 497.648C1713.02 485.595 1704.89 474.445 1699.46 464.2C1694.04 453.955 1690.42 446.723 1688.62 442.504H1686.81V676.64H1645.22V164.976H1680.48L1687.71 264.416H1689.52C1690.72 260.197 1693.74 252.965 1698.56 242.72C1703.98 231.872 1711.82 220.723 1722.06 209.272C1732.91 197.219 1746.77 186.973 1763.65 178.536C1781.12 169.496 1802.22 164.976 1826.93 164.976C1862.48 164.976 1892.32 173.413 1916.42 190.288C1941.13 207.163 1959.82 229.763 1972.47 258.088C1985.73 286.413 1992.36 318.355 1992.36 353.912C1992.36 389.469 1985.73 421.411 1972.47 449.736C1959.21 478.061 1940.23 500.36 1915.52 516.632C1891.41 532.904 1862.18 541.04 1827.83 541.04ZM1823.31 502.168C1853.44 502.168 1877.85 495.237 1896.54 481.376C1915.82 466.912 1929.68 448.229 1938.12 425.328C1947.16 402.427 1951.68 378.32 1951.68 353.008C1951.68 327.696 1946.56 303.891 1936.31 281.592C1926.67 258.691 1911.9 240.309 1892.02 226.448C1872.13 211.984 1847.12 204.752 1816.98 204.752C1780.82 204.752 1750.39 218.011 1725.68 244.528C1701.57 270.443 1689.52 306.603 1689.52 353.008C1689.52 400.619 1702.48 437.381 1728.39 463.296C1754.31 489.211 1785.95 502.168 1823.31 502.168ZM2220.01 541.04C2180.83 541.04 2148.29 531.699 2122.37 513.016C2097.06 494.333 2078.08 470.528 2065.42 441.6C2052.77 412.069 2046.74 381.635 2047.34 350.296C2047.34 317.752 2053.97 287.317 2067.23 258.992C2080.49 230.667 2099.77 208.067 2125.09 191.192C2151 173.715 2182.34 164.976 2219.1 164.976C2264.9 164.976 2302.57 180.043 2332.1 210.176C2362.23 239.707 2379.11 279.483 2382.73 329.504C2383.33 332.517 2383.63 336.133 2383.63 340.352C2383.63 344.571 2383.63 348.488 2383.63 352.104H2087.12C2087.12 398.509 2098.57 435.573 2121.47 463.296C2144.37 491.019 2177.22 504.88 2220.01 504.88C2250.74 504.88 2277.26 496.744 2299.56 480.472C2322.46 464.2 2336.62 442.203 2342.05 414.48H2382.73C2375.49 451.845 2357.11 482.28 2327.58 505.784C2298.65 529.288 2262.79 541.04 2220.01 541.04ZM2089.83 324.984H2341.14C2340.54 309.315 2336.02 291.837 2327.58 272.552C2319.75 253.267 2306.79 236.392 2288.71 221.928C2271.23 207.464 2248.03 200.232 2219.1 200.232C2179.33 200.232 2148.89 212.587 2127.8 237.296C2106.7 262.005 2094.05 291.235 2089.83 324.984ZM2599.06 541.04C2568.33 541.04 2543.32 535.917 2524.03 525.672C2504.75 514.824 2489.98 502.168 2479.74 487.704C2469.49 473.24 2462.26 459.379 2458.04 446.12C2454.42 432.861 2452.62 423.219 2452.62 417.192H2493.3C2493.3 417.795 2493.6 422.917 2494.2 432.56C2495.4 441.6 2499.02 452.147 2505.05 464.2C2511.07 476.253 2521.32 486.8 2535.78 495.84C2550.85 504.277 2572.24 508.496 2599.97 508.496C2619.25 508.496 2637.33 506.387 2654.21 502.168C2671.68 497.347 2685.55 490.115 2695.79 480.472C2706.64 470.227 2712.06 456.968 2712.06 440.696C2711.46 421.411 2705.13 406.645 2693.08 396.4C2681.03 385.552 2665.36 377.416 2646.07 371.992C2626.79 366.568 2606.6 361.747 2585.5 357.528C2564.41 353.309 2544.22 347.584 2524.94 340.352C2506.25 333.12 2490.88 322.573 2478.83 308.712C2467.38 294.851 2461.96 275.867 2462.56 251.76C2462.56 223.435 2475.82 200.232 2502.34 182.152C2528.85 164.072 2562.9 155.032 2604.49 155.032C2620.16 155.032 2636.43 156.84 2653.3 160.456C2670.78 164.072 2687.05 170.4 2702.12 179.44C2717.19 188.48 2729.24 201.136 2738.28 217.408C2747.32 233.077 2751.24 253.267 2750.03 277.976H2710.26C2711.46 259.293 2708.45 244.227 2701.22 232.776C2693.98 220.723 2684.34 211.683 2672.29 205.656C2660.84 199.629 2648.78 195.712 2636.13 193.904C2623.47 191.493 2612.02 190.288 2601.78 190.288C2573.45 190.288 2549.34 195.712 2529.46 206.56C2510.17 216.805 2500.53 232.173 2500.53 252.664C2500.53 271.347 2506.55 285.509 2518.61 295.152C2530.66 304.192 2546.33 311.424 2565.62 316.848C2584.9 321.669 2605.09 326.491 2626.18 331.312C2647.28 335.531 2667.16 341.557 2685.85 349.392C2705.13 356.624 2720.8 367.472 2732.86 381.936C2745.51 396.4 2751.84 416.589 2751.84 442.504C2751.84 465.405 2744.91 484.389 2731.05 499.456C2717.19 513.92 2698.5 524.467 2675 531.096C2652.1 537.725 2626.79 541.04 2599.06 541.04ZM2895.11 532C2875.82 532 2863.47 526.576 2858.05 515.728C2852.62 504.88 2849.91 491.923 2849.91 476.856V198.424H2789.34V164.976C2811.04 164.976 2826.1 163.771 2834.54 161.36C2842.98 158.347 2848.1 150.211 2849.91 136.952C2851.72 123.693 2852.62 101.395 2852.62 70.056H2889.69V164.976H2975.57V198.424H2889.69V496.744H2975.57V532H2895.11ZM3065.71 532V164.976H3100.97L3106.39 258.992C3112.42 233.077 3126.58 210.779 3148.88 192.096C3171.18 173.413 3202.52 164.373 3242.9 164.976H3262.78V211.08H3242.9C3201.91 211.08 3171.78 217.709 3152.5 230.968C3133.21 243.624 3120.55 260.8 3114.53 282.496C3109.1 304.192 3106.39 328.299 3106.39 354.816V532H3065.71ZM3300.24 692.912V658.56H3347.24C3359.3 658.56 3368.94 654.944 3376.17 647.712C3383.4 640.48 3392.74 625.112 3404.2 601.608L3449.4 503.072L3305.66 164.976H3349.05L3471.09 457.872L3600.36 164.976H3644.66L3440.36 608.84C3429.51 632.947 3419.86 651.027 3411.43 663.08C3402.99 675.133 3393.95 682.968 3384.31 686.584C3374.66 690.803 3362.91 692.912 3349.05 692.912H3300.24ZM3718.45 532C3706.4 532 3698.26 528.685 3694.04 522.056C3690.42 515.427 3688.62 507.592 3688.62 498.552C3688.62 489.512 3690.73 481.677 3694.94 475.048C3699.16 467.816 3707 464.2 3718.45 464.2C3730.5 464.2 3738.34 467.816 3741.95 475.048C3746.17 481.677 3748.28 489.512 3748.28 498.552C3748.28 507.592 3746.17 515.427 3741.95 522.056C3738.34 528.685 3730.5 532 3718.45 532ZM3868.74 534.712V198.424H3809.07V164.976H3868.74V73.672C3868.74 59.208 3871.45 46.552 3876.87 35.704C3882.9 24.856 3895.26 19.432 3913.94 19.432H4028.75V53.784H3911.23V164.976H4021.51V198.424H3911.23V534.712H3868.74ZM4125.72 126.104C4115.48 126.707 4108.55 123.995 4104.93 117.968C4101.31 111.941 4099.51 104.709 4099.51 96.272C4099.51 88.4373 4101.31 81.808 4104.93 76.384C4108.55 70.96 4115.48 68.248 4125.72 68.248C4135.36 68.248 4141.99 70.96 4145.61 76.384C4149.23 81.808 4151.03 88.4373 4151.03 96.272C4151.03 105.312 4149.23 112.544 4145.61 117.968C4141.99 123.392 4135.36 126.104 4125.72 126.104ZM4104.03 532V164.976H4144.71V532H4104.03Z" fill="white"/>
<rect width="700" height="700" fill="#FFC41C"/>
<rect x="74.5" y="74.5" width="551" height="551" fill="#B93131" stroke="#B93131" stroke-width="51"/>
<rect x="100" y="100" width="250" height="250" fill="#0000FF" fill-opacity="0.62"/>
<rect x="350" y="350" width="250" height="250" fill="#0000FF" fill-opacity="0.62"/>
<line x1="222.5" y1="131" x2="222.5" y2="318" stroke="#FFC41C" stroke-width="43"/>
<line x1="131" y1="223.5" x2="318" y2="223.5" stroke="#FFC41C" stroke-width="43"/>
<line x1="472.5" y1="381" x2="472.5" y2="568" stroke="#FFC41C" stroke-width="43"/>
<line x1="381" y1="473.5" x2="568" y2="473.5" stroke="#FFC41C" stroke-width="43"/>
<rect x="421" y="214.406" width="77" height="77" transform="rotate(-45 421 214.406)" fill="#FFC41C"/>
<rect x="171" y="475.447" width="77" height="77" transform="rotate(-45 171 475.447)" fill="#FFC41C"/>
</svg>
