<svg width="3155" height="674" viewBox="0 0 3155 674" fill="none" xmlns="http://www.w3.org/2000/svg">
<path d="M106 513C86.7147 513 74.36 507.576 68.936 496.728C63.512 485.88 60.8 472.923 60.8 457.856V179.424H0.232V145.976C21.928 145.976 36.9947 144.771 45.432 142.36C53.8693 139.347 58.992 131.211 60.8 117.952C62.608 104.693 63.512 82.3946 63.512 51.056H100.576V145.976H186.456V179.424H100.576V477.744H186.456V513H106ZM395.026 521.136C361.276 521.136 333.252 512.699 310.954 495.824C288.655 478.949 272.082 456.349 261.234 428.024C250.386 399.096 244.962 367.155 244.962 332.2C244.962 296.04 250.386 263.797 261.234 235.472C272.684 206.544 289.559 183.944 311.858 167.672C334.156 150.797 361.879 142.36 395.026 142.36C430.583 142.36 458.908 151.099 480.002 168.576C501.095 185.451 516.162 205.037 525.202 227.336H527.01V145.976H568.594V513H534.242L527.01 437.064H525.202C515.559 459.363 500.191 478.949 479.098 495.824C458.004 512.699 429.98 521.136 395.026 521.136ZM410.394 483.168C448.964 483.168 477.892 469.909 497.178 443.392C516.463 416.875 526.106 380.112 526.106 333.104C526.106 283.083 515.86 245.416 495.37 220.104C475.482 194.792 447.156 182.136 410.394 182.136C367.604 182.136 336.266 196.6 316.378 225.528C296.49 253.853 286.546 289.411 286.546 332.2C286.546 376.797 296.791 413.259 317.282 441.584C337.772 469.307 368.81 483.168 410.394 483.168ZM830.831 522.04C806.725 522.04 785.933 517.821 768.455 509.384C751.581 500.947 737.719 490.701 726.871 478.648C716.023 466.595 707.887 455.445 702.463 445.2C697.039 434.955 693.423 427.723 691.615 423.504H689.807V657.64H648.223V145.976H683.479L690.711 245.416H692.519C693.725 241.197 696.738 233.965 701.559 223.72C706.983 212.872 714.818 201.723 725.063 190.272C735.911 178.219 749.773 167.973 766.647 159.536C784.125 150.496 805.218 145.976 829.927 145.976C865.485 145.976 895.317 154.413 919.423 171.288C944.133 188.163 962.815 210.763 975.471 239.088C988.73 267.413 995.359 299.355 995.359 334.912C995.359 370.469 988.73 402.411 975.471 430.736C962.213 459.061 943.229 481.36 918.519 497.632C894.413 513.904 865.183 522.04 830.831 522.04ZM826.311 483.168C856.445 483.168 880.853 476.237 899.535 462.376C918.821 447.912 932.682 429.229 941.119 406.328C950.159 383.427 954.679 359.32 954.679 334.008C954.679 308.696 949.557 284.891 939.311 262.592C929.669 239.691 914.903 221.309 895.015 207.448C875.127 192.984 850.117 185.752 819.983 185.752C783.823 185.752 753.389 199.011 728.679 225.528C704.573 251.443 692.519 287.603 692.519 334.008C692.519 381.619 705.477 418.381 731.391 444.296C757.306 470.211 788.946 483.168 826.311 483.168ZM1223.01 522.04C1183.83 522.04 1151.29 512.699 1125.37 494.016C1100.06 475.333 1081.08 451.528 1068.42 422.6C1055.77 393.069 1049.74 362.635 1050.34 331.296C1050.34 298.752 1056.97 268.317 1070.23 239.992C1083.49 211.667 1102.77 189.067 1128.09 172.192C1154 154.715 1185.34 145.976 1222.1 145.976C1267.9 145.976 1305.57 161.043 1335.1 191.176C1365.23 220.707 1382.11 260.483 1385.73 310.504C1386.33 313.517 1386.63 317.133 1386.63 321.352C1386.63 325.571 1386.63 329.488 1386.63 333.104H1090.12C1090.12 379.509 1101.57 416.573 1124.47 444.296C1147.37 472.019 1180.22 485.88 1223.01 485.88C1253.74 485.88 1280.26 477.744 1302.56 461.472C1325.46 445.2 1339.62 423.203 1345.05 395.48H1385.73C1378.49 432.845 1360.11 463.28 1330.58 486.784C1301.65 510.288 1265.79 522.04 1223.01 522.04ZM1092.83 305.984H1344.14C1343.54 290.315 1339.02 272.837 1330.58 253.552C1322.75 234.267 1309.79 217.392 1291.71 202.928C1274.23 188.464 1251.03 181.232 1222.1 181.232C1182.33 181.232 1151.89 193.587 1130.8 218.296C1109.7 243.005 1097.05 272.235 1092.83 305.984ZM1602.06 522.04C1571.33 522.04 1546.32 516.917 1527.03 506.672C1507.75 495.824 1492.98 483.168 1482.74 468.704C1472.49 454.24 1465.26 440.379 1461.04 427.12C1457.42 413.861 1455.62 404.219 1455.62 398.192H1496.3C1496.3 398.795 1496.6 403.917 1497.2 413.56C1498.4 422.6 1502.02 433.147 1508.05 445.2C1514.07 457.253 1524.32 467.8 1538.78 476.84C1553.85 485.277 1575.24 489.496 1602.97 489.496C1622.25 489.496 1640.33 487.387 1657.21 483.168C1674.68 478.347 1688.55 471.115 1698.79 461.472C1709.64 451.227 1715.06 437.968 1715.06 421.696C1714.46 402.411 1708.13 387.645 1696.08 377.4C1684.03 366.552 1668.36 358.416 1649.07 352.992C1629.79 347.568 1609.6 342.747 1588.5 338.528C1567.41 334.309 1547.22 328.584 1527.94 321.352C1509.25 314.12 1493.88 303.573 1481.83 289.712C1470.38 275.851 1464.96 256.867 1465.56 232.76C1465.56 204.435 1478.82 181.232 1505.34 163.152C1531.85 145.072 1565.9 136.032 1607.49 136.032C1623.16 136.032 1639.43 137.84 1656.3 141.456C1673.78 145.072 1690.05 151.4 1705.12 160.44C1720.19 169.48 1732.24 182.136 1741.28 198.408C1750.32 214.077 1754.24 234.267 1753.03 258.976H1713.26C1714.46 240.293 1711.45 225.227 1704.22 213.776C1696.98 201.723 1687.34 192.683 1675.29 186.656C1663.84 180.629 1651.78 176.712 1639.13 174.904C1626.47 172.493 1615.02 171.288 1604.78 171.288C1576.45 171.288 1552.34 176.712 1532.46 187.56C1513.17 197.805 1503.53 213.173 1503.53 233.664C1503.53 252.347 1509.55 266.509 1521.61 276.152C1533.66 285.192 1549.33 292.424 1568.62 297.848C1587.9 302.669 1608.09 307.491 1629.18 312.312C1650.28 316.531 1670.16 322.557 1688.85 330.392C1708.13 337.624 1723.8 348.472 1735.86 362.936C1748.51 377.4 1754.84 397.589 1754.84 423.504C1754.84 446.405 1747.91 465.389 1734.05 480.456C1720.19 494.92 1701.5 505.467 1678 512.096C1655.1 518.725 1629.79 522.04 1602.06 522.04ZM1898.11 513C1878.82 513 1866.47 507.576 1861.05 496.728C1855.62 485.88 1852.91 472.923 1852.91 457.856V179.424H1792.34V145.976C1814.04 145.976 1829.1 144.771 1837.54 142.36C1845.98 139.347 1851.1 131.211 1852.91 117.952C1854.72 104.693 1855.62 82.3946 1855.62 51.056H1892.69V145.976H1978.57V179.424H1892.69V477.744H1978.57V513H1898.11ZM2068.71 513V145.976H2103.97L2109.39 239.992C2115.42 214.077 2129.58 191.779 2151.88 173.096C2174.18 154.413 2205.52 145.373 2245.9 145.976H2265.78V192.08H2245.9C2204.91 192.08 2174.78 198.709 2155.5 211.968C2136.21 224.624 2123.55 241.8 2117.53 263.496C2112.1 285.192 2109.39 309.299 2109.39 335.816V513H2068.71ZM2303.24 673.912V639.56H2350.24C2362.3 639.56 2371.94 635.944 2379.17 628.712C2386.4 621.48 2395.74 606.112 2407.2 582.608L2452.4 484.072L2308.66 145.976H2352.05L2474.09 438.872L2603.36 145.976H2647.66L2443.36 589.84C2432.51 613.947 2422.86 632.027 2414.43 644.08C2405.99 656.133 2396.95 663.968 2387.31 667.584C2377.66 671.803 2365.91 673.912 2352.05 673.912H2303.24ZM2721.45 513C2709.4 513 2701.26 509.685 2697.04 503.056C2693.42 496.427 2691.62 488.592 2691.62 479.552C2691.62 470.512 2693.73 462.677 2697.94 456.048C2702.16 448.816 2710 445.2 2721.45 445.2C2733.5 445.2 2741.34 448.816 2744.95 456.048C2749.17 462.677 2751.28 470.512 2751.28 479.552C2751.28 488.592 2749.17 496.427 2744.95 503.056C2741.34 509.685 2733.5 513 2721.45 513ZM2871.74 515.712V179.424H2812.07V145.976H2871.74V54.672C2871.74 40.208 2874.45 27.552 2879.87 16.704C2885.9 5.85597 2898.26 0.431972 2916.94 0.431972H3031.75V34.784H2914.23V145.976H3024.51V179.424H2914.23V515.712H2871.74ZM3128.72 107.104C3118.48 107.707 3111.55 104.995 3107.93 98.968C3104.31 92.9413 3102.51 85.7093 3102.51 77.272C3102.51 69.4373 3104.31 62.808 3107.93 57.384C3111.55 51.96 3118.48 49.248 3128.72 49.248C3138.36 49.248 3144.99 51.96 3148.61 57.384C3152.23 62.808 3154.03 69.4373 3154.03 77.272C3154.03 86.312 3152.23 93.544 3148.61 98.968C3144.99 104.392 3138.36 107.104 3128.72 107.104ZM3107.03 513V145.976H3147.71V513H3107.03Z" fill="white"/>
</svg>
